<mxfile host="app.diagrams.net" modified="2023-12-20T09:50:28.822Z" agent="Mozilla/5.0 (Macintosh; Intel Mac OS X 10_15_7) AppleWebKit/537.36 (KHTML, like Gecko) Chrome/120.0.0.0 Safari/537.36" etag="dwnARpq0lwZ5OnsuAE1Y" version="22.1.11" type="device">
  <diagram id="R2lEEEUBdFMjLlhIrx00" name="Page-1">
    <mxGraphModel dx="1729" dy="511" grid="1" gridSize="10" guides="1" tooltips="1" connect="1" arrows="1" fold="1" page="1" pageScale="1" pageWidth="850" pageHeight="1100" math="0" shadow="0" extFonts="Permanent Marker^https://fonts.googleapis.com/css?family=Permanent+Marker">
      <root>
        <mxCell id="0" />
        <mxCell id="1" parent="0" />
        <mxCell id="1eLBUJJw_PzhcGmTwcDp-1" value="TEAMS" style="swimlane;childLayout=stackLayout;horizontal=1;startSize=50;horizontalStack=0;rounded=0;fontSize=14;fontStyle=0;strokeWidth=2;resizeParent=0;resizeLast=1;shadow=0;dashed=0;align=center;arcSize=4;whiteSpace=wrap;html=1;verticalAlign=middle;labelBackgroundColor=none;" vertex="1" parent="1">
          <mxGeometry x="420" y="350" width="160" height="200" as="geometry" />
        </mxCell>
        <mxCell id="1eLBUJJw_PzhcGmTwcDp-2" value="&lt;u&gt;TeamID&lt;/u&gt;&lt;br&gt;TeamName&lt;br&gt;TeamYear&lt;br&gt;CityID(FK)&lt;br&gt;StadiumID(FK)&lt;br&gt;PresidentName&lt;br&gt;PresidentLast&lt;br&gt;CoachName&lt;br&gt;CoachLast" style="align=left;strokeColor=none;fillColor=none;spacingLeft=4;fontSize=12;verticalAlign=top;resizable=0;rotatable=0;part=1;html=1;" vertex="1" parent="1eLBUJJw_PzhcGmTwcDp-1">
          <mxGeometry y="50" width="160" height="150" as="geometry" />
        </mxCell>
        <mxCell id="1eLBUJJw_PzhcGmTwcDp-5" value="STADIUMS" style="swimlane;childLayout=stackLayout;horizontal=1;startSize=50;horizontalStack=0;rounded=0;fontSize=14;fontStyle=0;strokeWidth=2;resizeParent=0;resizeLast=1;shadow=0;dashed=0;align=center;arcSize=4;whiteSpace=wrap;html=1;" vertex="1" parent="1">
          <mxGeometry x="650" y="345" width="160" height="110" as="geometry" />
        </mxCell>
        <mxCell id="1eLBUJJw_PzhcGmTwcDp-6" value="&lt;u&gt;StadiumID&lt;br&gt;&lt;/u&gt;StadiumName&lt;br&gt;StadiumCapacity" style="align=left;strokeColor=none;fillColor=none;spacingLeft=4;fontSize=12;verticalAlign=top;resizable=0;rotatable=0;part=1;html=1;" vertex="1" parent="1eLBUJJw_PzhcGmTwcDp-5">
          <mxGeometry y="50" width="160" height="60" as="geometry" />
        </mxCell>
        <mxCell id="1eLBUJJw_PzhcGmTwcDp-9" style="edgeStyle=orthogonalEdgeStyle;rounded=0;orthogonalLoop=1;jettySize=auto;html=1;exitX=0.5;exitY=1;exitDx=0;exitDy=0;" edge="1" parent="1eLBUJJw_PzhcGmTwcDp-5" source="1eLBUJJw_PzhcGmTwcDp-6" target="1eLBUJJw_PzhcGmTwcDp-6">
          <mxGeometry relative="1" as="geometry" />
        </mxCell>
        <mxCell id="1eLBUJJw_PzhcGmTwcDp-7" value="MATCHES" style="swimlane;childLayout=stackLayout;horizontal=1;startSize=50;horizontalStack=0;rounded=0;fontSize=14;fontStyle=0;strokeWidth=2;resizeParent=0;resizeLast=1;shadow=0;dashed=0;align=center;arcSize=4;whiteSpace=wrap;html=1;" vertex="1" parent="1">
          <mxGeometry x="480" y="90" width="160" height="190" as="geometry" />
        </mxCell>
        <mxCell id="1eLBUJJw_PzhcGmTwcDp-8" value="&lt;u&gt;MatchID&lt;/u&gt;&lt;br&gt;MatchDate&lt;br&gt;InTeamID(FK)&lt;br&gt;OutTeamID(FK)&lt;br&gt;InTeam&lt;br&gt;OutTeam&lt;br&gt;InGoals&lt;br&gt;OutGoals" style="align=left;strokeColor=none;fillColor=none;spacingLeft=4;fontSize=12;verticalAlign=top;resizable=0;rotatable=0;part=1;html=1;" vertex="1" parent="1eLBUJJw_PzhcGmTwcDp-7">
          <mxGeometry y="50" width="160" height="140" as="geometry" />
        </mxCell>
        <mxCell id="1eLBUJJw_PzhcGmTwcDp-10" value="MATCH_PLAYER" style="swimlane;childLayout=stackLayout;horizontal=1;startSize=50;horizontalStack=0;rounded=0;fontSize=14;fontStyle=0;strokeWidth=2;resizeParent=0;resizeLast=1;shadow=0;dashed=0;align=center;arcSize=4;whiteSpace=wrap;html=1;" vertex="1" parent="1">
          <mxGeometry x="200" y="40" width="160" height="190" as="geometry" />
        </mxCell>
        <mxCell id="1eLBUJJw_PzhcGmTwcDp-11" value="&lt;u&gt;MatchID(FK)&lt;br&gt;&lt;/u&gt;&lt;u style=&quot;border-color: var(--border-color);&quot;&gt;PlayerID&lt;/u&gt;&lt;u style=&quot;border-color: var(--border-color);&quot;&gt;(FK)&lt;/u&gt;&lt;br&gt;TimePlayed&lt;br&gt;Goals&lt;br&gt;Assists&lt;br&gt;RedCards&lt;br&gt;YellowCards" style="align=left;strokeColor=none;fillColor=none;spacingLeft=4;fontSize=12;verticalAlign=top;resizable=0;rotatable=0;part=1;html=1;" vertex="1" parent="1eLBUJJw_PzhcGmTwcDp-10">
          <mxGeometry y="50" width="160" height="140" as="geometry" />
        </mxCell>
        <mxCell id="1eLBUJJw_PzhcGmTwcDp-3" value="PLAYERS" style="swimlane;childLayout=stackLayout;horizontal=1;startSize=50;horizontalStack=0;rounded=0;fontSize=14;fontStyle=0;strokeWidth=2;resizeParent=0;resizeLast=1;shadow=0;dashed=0;align=center;arcSize=4;whiteSpace=wrap;html=1;" vertex="1" parent="1">
          <mxGeometry x="195" y="285" width="160" height="185" as="geometry" />
        </mxCell>
        <mxCell id="1eLBUJJw_PzhcGmTwcDp-4" value="&lt;u&gt;PlayerID&lt;/u&gt;&lt;br&gt;PlayerFirst&lt;br&gt;PlayerLast&lt;br&gt;PlayerDateOB&lt;br&gt;NationalityID(FK)&lt;br&gt;PositionID(FK)&lt;br&gt;PlayerValue&lt;br&gt;TeamID(FK)" style="align=left;strokeColor=none;fillColor=none;spacingLeft=4;fontSize=12;verticalAlign=top;resizable=0;rotatable=0;part=1;html=1;" vertex="1" parent="1eLBUJJw_PzhcGmTwcDp-3">
          <mxGeometry y="50" width="160" height="135" as="geometry" />
        </mxCell>
        <mxCell id="1eLBUJJw_PzhcGmTwcDp-22" value="1" style="text;html=1;align=center;verticalAlign=middle;resizable=0;points=[];autosize=1;strokeColor=none;fillColor=none;" vertex="1" parent="1">
          <mxGeometry x="445" y="130" width="30" height="30" as="geometry" />
        </mxCell>
        <mxCell id="1eLBUJJw_PzhcGmTwcDp-23" value="M" style="text;html=1;align=center;verticalAlign=middle;resizable=0;points=[];autosize=1;strokeColor=none;fillColor=none;" vertex="1" parent="1">
          <mxGeometry x="360" y="130" width="30" height="30" as="geometry" />
        </mxCell>
        <mxCell id="1eLBUJJw_PzhcGmTwcDp-26" value="M" style="text;html=1;align=center;verticalAlign=middle;resizable=0;points=[];autosize=1;strokeColor=none;fillColor=none;" vertex="1" parent="1">
          <mxGeometry x="570" y="408" width="30" height="30" as="geometry" />
        </mxCell>
        <mxCell id="1eLBUJJw_PzhcGmTwcDp-39" value="1" style="text;html=1;align=center;verticalAlign=middle;resizable=0;points=[];autosize=1;strokeColor=none;fillColor=none;" vertex="1" parent="1">
          <mxGeometry x="225" y="438" width="30" height="30" as="geometry" />
        </mxCell>
        <mxCell id="1eLBUJJw_PzhcGmTwcDp-41" value="NATIONALITIES" style="swimlane;childLayout=stackLayout;horizontal=1;startSize=50;horizontalStack=0;rounded=0;fontSize=14;fontStyle=0;strokeWidth=2;resizeParent=0;resizeLast=1;shadow=0;dashed=0;align=center;arcSize=4;whiteSpace=wrap;html=1;" vertex="1" parent="1">
          <mxGeometry x="-60" y="290" width="160" height="110" as="geometry" />
        </mxCell>
        <mxCell id="1eLBUJJw_PzhcGmTwcDp-42" value="&lt;u&gt;NationalityID&lt;br&gt;&lt;/u&gt;&lt;span style=&quot;border-color: var(--border-color);&quot;&gt;Nationality&lt;/span&gt;&lt;br&gt;" style="align=left;strokeColor=none;fillColor=none;spacingLeft=4;fontSize=12;verticalAlign=top;resizable=0;rotatable=0;part=1;html=1;" vertex="1" parent="1eLBUJJw_PzhcGmTwcDp-41">
          <mxGeometry y="50" width="160" height="60" as="geometry" />
        </mxCell>
        <mxCell id="1eLBUJJw_PzhcGmTwcDp-43" style="edgeStyle=orthogonalEdgeStyle;rounded=0;orthogonalLoop=1;jettySize=auto;html=1;exitX=0.5;exitY=1;exitDx=0;exitDy=0;" edge="1" parent="1eLBUJJw_PzhcGmTwcDp-41" source="1eLBUJJw_PzhcGmTwcDp-42" target="1eLBUJJw_PzhcGmTwcDp-42">
          <mxGeometry relative="1" as="geometry" />
        </mxCell>
        <mxCell id="1eLBUJJw_PzhcGmTwcDp-45" value="1" style="text;html=1;align=center;verticalAlign=middle;resizable=0;points=[];autosize=1;strokeColor=none;fillColor=none;" vertex="1" parent="1">
          <mxGeometry x="95" y="328" width="30" height="30" as="geometry" />
        </mxCell>
        <mxCell id="1eLBUJJw_PzhcGmTwcDp-46" value="M" style="text;html=1;align=center;verticalAlign=middle;resizable=0;points=[];autosize=1;strokeColor=none;fillColor=none;" vertex="1" parent="1">
          <mxGeometry x="165" y="328" width="30" height="30" as="geometry" />
        </mxCell>
        <mxCell id="1eLBUJJw_PzhcGmTwcDp-44" value="" style="endArrow=none;html=1;rounded=0;entryX=1;entryY=0.25;entryDx=0;entryDy=0;startArrow=ERmany;startFill=0;endFill=0;exitX=0;exitY=0.25;exitDx=0;exitDy=0;" edge="1" parent="1" source="1eLBUJJw_PzhcGmTwcDp-4" target="1eLBUJJw_PzhcGmTwcDp-42">
          <mxGeometry relative="1" as="geometry">
            <mxPoint x="180" y="355" as="sourcePoint" />
            <mxPoint x="250" y="240" as="targetPoint" />
          </mxGeometry>
        </mxCell>
        <mxCell id="1eLBUJJw_PzhcGmTwcDp-47" value="CITIES" style="swimlane;childLayout=stackLayout;horizontal=1;startSize=50;horizontalStack=0;rounded=0;fontSize=14;fontStyle=0;strokeWidth=2;resizeParent=0;resizeLast=1;shadow=0;dashed=0;align=center;arcSize=4;whiteSpace=wrap;html=1;" vertex="1" parent="1">
          <mxGeometry x="650" y="495" width="160" height="110" as="geometry" />
        </mxCell>
        <mxCell id="1eLBUJJw_PzhcGmTwcDp-48" value="&lt;u&gt;CitiesID&lt;br&gt;&lt;/u&gt;&lt;span style=&quot;border-color: var(--border-color);&quot;&gt;City&lt;/span&gt;" style="align=left;strokeColor=none;fillColor=none;spacingLeft=4;fontSize=12;verticalAlign=top;resizable=0;rotatable=0;part=1;html=1;" vertex="1" parent="1eLBUJJw_PzhcGmTwcDp-47">
          <mxGeometry y="50" width="160" height="60" as="geometry" />
        </mxCell>
        <mxCell id="1eLBUJJw_PzhcGmTwcDp-49" style="edgeStyle=orthogonalEdgeStyle;rounded=0;orthogonalLoop=1;jettySize=auto;html=1;exitX=0.5;exitY=1;exitDx=0;exitDy=0;" edge="1" parent="1eLBUJJw_PzhcGmTwcDp-47" source="1eLBUJJw_PzhcGmTwcDp-48" target="1eLBUJJw_PzhcGmTwcDp-48">
          <mxGeometry relative="1" as="geometry" />
        </mxCell>
        <mxCell id="1eLBUJJw_PzhcGmTwcDp-50" value="" style="endArrow=none;html=1;rounded=0;entryX=0;entryY=0.25;entryDx=0;entryDy=0;startArrow=ERmany;startFill=0;endFill=0;exitX=1;exitY=0.554;exitDx=0;exitDy=0;exitPerimeter=0;" edge="1" parent="1" source="1eLBUJJw_PzhcGmTwcDp-2" target="1eLBUJJw_PzhcGmTwcDp-48">
          <mxGeometry relative="1" as="geometry">
            <mxPoint x="205" y="375" as="sourcePoint" />
            <mxPoint x="110" y="365" as="targetPoint" />
          </mxGeometry>
        </mxCell>
        <mxCell id="1eLBUJJw_PzhcGmTwcDp-52" value="1" style="text;html=1;align=center;verticalAlign=middle;resizable=0;points=[];autosize=1;strokeColor=none;fillColor=none;" vertex="1" parent="1">
          <mxGeometry x="615" y="508" width="30" height="30" as="geometry" />
        </mxCell>
        <mxCell id="1eLBUJJw_PzhcGmTwcDp-53" value="M" style="text;html=1;align=center;verticalAlign=middle;resizable=0;points=[];autosize=1;strokeColor=none;fillColor=none;" vertex="1" parent="1">
          <mxGeometry x="585" y="448" width="30" height="30" as="geometry" />
        </mxCell>
        <mxCell id="1eLBUJJw_PzhcGmTwcDp-54" value="POSITIONS" style="swimlane;childLayout=stackLayout;horizontal=1;startSize=50;horizontalStack=0;rounded=0;fontSize=14;fontStyle=0;strokeWidth=2;resizeParent=0;resizeLast=1;shadow=0;dashed=0;align=center;arcSize=4;whiteSpace=wrap;html=1;" vertex="1" parent="1">
          <mxGeometry x="-60" y="428" width="160" height="110" as="geometry" />
        </mxCell>
        <mxCell id="1eLBUJJw_PzhcGmTwcDp-55" value="&lt;u&gt;PositionID&lt;br&gt;&lt;/u&gt;&lt;span style=&quot;border-color: var(--border-color);&quot;&gt;Position&lt;/span&gt;" style="align=left;strokeColor=none;fillColor=none;spacingLeft=4;fontSize=12;verticalAlign=top;resizable=0;rotatable=0;part=1;html=1;" vertex="1" parent="1eLBUJJw_PzhcGmTwcDp-54">
          <mxGeometry y="50" width="160" height="60" as="geometry" />
        </mxCell>
        <mxCell id="1eLBUJJw_PzhcGmTwcDp-56" style="edgeStyle=orthogonalEdgeStyle;rounded=0;orthogonalLoop=1;jettySize=auto;html=1;exitX=0.5;exitY=1;exitDx=0;exitDy=0;" edge="1" parent="1eLBUJJw_PzhcGmTwcDp-54" source="1eLBUJJw_PzhcGmTwcDp-55" target="1eLBUJJw_PzhcGmTwcDp-55">
          <mxGeometry relative="1" as="geometry" />
        </mxCell>
        <mxCell id="1eLBUJJw_PzhcGmTwcDp-57" value="" style="endArrow=none;html=1;rounded=0;entryX=1;entryY=0.25;entryDx=0;entryDy=0;startArrow=ERmany;startFill=0;endFill=0;exitX=0;exitY=0.5;exitDx=0;exitDy=0;" edge="1" parent="1" source="1eLBUJJw_PzhcGmTwcDp-4" target="1eLBUJJw_PzhcGmTwcDp-55">
          <mxGeometry relative="1" as="geometry">
            <mxPoint x="205" y="375" as="sourcePoint" />
            <mxPoint x="110" y="365" as="targetPoint" />
          </mxGeometry>
        </mxCell>
        <mxCell id="1eLBUJJw_PzhcGmTwcDp-58" value="M" style="text;html=1;align=center;verticalAlign=middle;resizable=0;points=[];autosize=1;strokeColor=none;fillColor=none;" vertex="1" parent="1">
          <mxGeometry x="165" y="378" width="30" height="30" as="geometry" />
        </mxCell>
        <mxCell id="1eLBUJJw_PzhcGmTwcDp-59" value="1" style="text;html=1;align=center;verticalAlign=middle;resizable=0;points=[];autosize=1;strokeColor=none;fillColor=none;" vertex="1" parent="1">
          <mxGeometry x="95" y="438" width="30" height="30" as="geometry" />
        </mxCell>
        <mxCell id="1eLBUJJw_PzhcGmTwcDp-60" value="" style="endArrow=none;html=1;rounded=0;entryX=0;entryY=0.5;entryDx=0;entryDy=0;startArrow=ERmany;startFill=0;endFill=0;exitX=1;exitY=0.25;exitDx=0;exitDy=0;" edge="1" parent="1" source="1eLBUJJw_PzhcGmTwcDp-2" target="1eLBUJJw_PzhcGmTwcDp-6">
          <mxGeometry relative="1" as="geometry">
            <mxPoint x="205" y="375" as="sourcePoint" />
            <mxPoint x="110" y="365" as="targetPoint" />
          </mxGeometry>
        </mxCell>
        <mxCell id="1eLBUJJw_PzhcGmTwcDp-63" value="1" style="text;html=1;align=center;verticalAlign=middle;resizable=0;points=[];autosize=1;strokeColor=none;fillColor=none;" vertex="1" parent="1">
          <mxGeometry x="625" y="398" width="30" height="30" as="geometry" />
        </mxCell>
        <mxCell id="1eLBUJJw_PzhcGmTwcDp-66" value="" style="endArrow=none;html=1;rounded=0;entryX=-0.025;entryY=0.32;entryDx=0;entryDy=0;startArrow=ERmany;startFill=0;endFill=0;exitX=1;exitY=0.5;exitDx=0;exitDy=0;entryPerimeter=0;" edge="1" parent="1" source="1eLBUJJw_PzhcGmTwcDp-4" target="1eLBUJJw_PzhcGmTwcDp-2">
          <mxGeometry relative="1" as="geometry">
            <mxPoint x="205" y="375" as="sourcePoint" />
            <mxPoint x="110" y="365" as="targetPoint" />
          </mxGeometry>
        </mxCell>
        <mxCell id="1eLBUJJw_PzhcGmTwcDp-67" value="1" style="text;html=1;align=center;verticalAlign=middle;resizable=0;points=[];autosize=1;strokeColor=none;fillColor=none;" vertex="1" parent="1">
          <mxGeometry x="395" y="408" width="30" height="30" as="geometry" />
        </mxCell>
        <mxCell id="1eLBUJJw_PzhcGmTwcDp-68" value="M" style="text;html=1;align=center;verticalAlign=middle;resizable=0;points=[];autosize=1;strokeColor=none;fillColor=none;" vertex="1" parent="1">
          <mxGeometry x="355" y="368" width="30" height="30" as="geometry" />
        </mxCell>
        <mxCell id="1eLBUJJw_PzhcGmTwcDp-69" value="" style="endArrow=none;html=1;rounded=0;entryX=0.163;entryY=1;entryDx=0;entryDy=0;startArrow=ERmany;startFill=0;endFill=0;exitX=0.25;exitY=0;exitDx=0;exitDy=0;entryPerimeter=0;" edge="1" parent="1" source="1eLBUJJw_PzhcGmTwcDp-3" target="1eLBUJJw_PzhcGmTwcDp-11">
          <mxGeometry relative="1" as="geometry">
            <mxPoint x="205" y="375" as="sourcePoint" />
            <mxPoint x="110" y="365" as="targetPoint" />
          </mxGeometry>
        </mxCell>
        <mxCell id="1eLBUJJw_PzhcGmTwcDp-70" value="1" style="text;html=1;align=center;verticalAlign=middle;resizable=0;points=[];autosize=1;strokeColor=none;fillColor=none;" vertex="1" parent="1">
          <mxGeometry x="225" y="255" width="30" height="30" as="geometry" />
        </mxCell>
        <mxCell id="1eLBUJJw_PzhcGmTwcDp-71" value="M" style="text;html=1;align=center;verticalAlign=middle;resizable=0;points=[];autosize=1;strokeColor=none;fillColor=none;" vertex="1" parent="1">
          <mxGeometry x="225" y="225" width="30" height="30" as="geometry" />
        </mxCell>
        <mxCell id="1eLBUJJw_PzhcGmTwcDp-72" value="" style="endArrow=none;html=1;rounded=0;entryX=0.013;entryY=0.136;entryDx=0;entryDy=0;startArrow=ERmany;startFill=0;endFill=0;entryPerimeter=0;" edge="1" parent="1" source="1eLBUJJw_PzhcGmTwcDp-11" target="1eLBUJJw_PzhcGmTwcDp-8">
          <mxGeometry relative="1" as="geometry">
            <mxPoint x="400" y="250" as="sourcePoint" />
            <mxPoint x="236" y="240" as="targetPoint" />
          </mxGeometry>
        </mxCell>
        <mxCell id="1eLBUJJw_PzhcGmTwcDp-76" value="" style="endArrow=none;html=1;rounded=0;entryX=0.65;entryY=0;entryDx=0;entryDy=0;startArrow=ERmany;startFill=0;endFill=0;exitX=0.356;exitY=1.021;exitDx=0;exitDy=0;entryPerimeter=0;exitPerimeter=0;" edge="1" parent="1" source="1eLBUJJw_PzhcGmTwcDp-8" target="1eLBUJJw_PzhcGmTwcDp-1">
          <mxGeometry relative="1" as="geometry">
            <mxPoint x="365" y="405" as="sourcePoint" />
            <mxPoint x="426" y="458" as="targetPoint" />
          </mxGeometry>
        </mxCell>
        <mxCell id="1eLBUJJw_PzhcGmTwcDp-77" value="1" style="text;html=1;align=center;verticalAlign=middle;resizable=0;points=[];autosize=1;strokeColor=none;fillColor=none;" vertex="1" parent="1">
          <mxGeometry x="535" y="318" width="30" height="30" as="geometry" />
        </mxCell>
        <mxCell id="1eLBUJJw_PzhcGmTwcDp-78" value="M" style="text;html=1;align=center;verticalAlign=middle;resizable=0;points=[];autosize=1;strokeColor=none;fillColor=none;" vertex="1" parent="1">
          <mxGeometry x="535" y="280" width="30" height="30" as="geometry" />
        </mxCell>
        <mxCell id="1eLBUJJw_PzhcGmTwcDp-79" value="" style="endArrow=none;html=1;rounded=0;entryX=0.45;entryY=-0.015;entryDx=0;entryDy=0;startArrow=ERmany;startFill=0;endFill=0;exitX=0.181;exitY=1.007;exitDx=0;exitDy=0;exitPerimeter=0;entryPerimeter=0;" edge="1" parent="1" source="1eLBUJJw_PzhcGmTwcDp-8" target="1eLBUJJw_PzhcGmTwcDp-1">
          <mxGeometry relative="1" as="geometry">
            <mxPoint x="487" y="174" as="sourcePoint" />
            <mxPoint x="370" y="170" as="targetPoint" />
          </mxGeometry>
        </mxCell>
        <mxCell id="1eLBUJJw_PzhcGmTwcDp-80" value="1" style="text;html=1;align=center;verticalAlign=middle;resizable=0;points=[];autosize=1;strokeColor=none;fillColor=none;" vertex="1" parent="1">
          <mxGeometry x="465" y="318" width="30" height="30" as="geometry" />
        </mxCell>
        <mxCell id="1eLBUJJw_PzhcGmTwcDp-81" value="M" style="text;html=1;align=center;verticalAlign=middle;resizable=0;points=[];autosize=1;strokeColor=none;fillColor=none;" vertex="1" parent="1">
          <mxGeometry x="475" y="278" width="30" height="30" as="geometry" />
        </mxCell>
      </root>
    </mxGraphModel>
  </diagram>
</mxfile>
